<svg width="133" height="121" viewBox="0 0 133 121" fill="none" xmlns="http://www.w3.org/2000/svg">
<path d="M70.5 0.5L112.5 21L133 62.5L112.5 110.23L66.5 121L27 107L0 62.5L21.5 21L70.5 0.5Z" fill="#9B17B4"/>
<g filter="url(#filter0_d_142_6)">
<path fill-rule="evenodd" clip-rule="evenodd" d="M44.3039 81.4851C44.3039 81.4851 35.8647 70.2901 34.0812 66.0028C32.2966 61.7126 31.1143 51.7495 32.8486 47.4384C34.3052 43.8173 39.385 38.2065 44.3679 36.9681C49.0678 35.8 63.72 36.3051 63.72 36.3051L58.9431 22L77.6527 25.1908L73.6911 35.4538L73.8841 35.3517C73.8841 35.3517 88.7308 29.2883 93.7791 30.2277C96.9989 30.8269 102.94 34.9311 104.471 37.8464C106.799 42.2813 108.545 52.775 107.498 57.6795C106.4 62.8214 98.0529 76.4435 98.0529 76.4435L82.2052 74.4213L44.3039 81.4851ZM47.4698 84.8642L44.6934 96.8677L99.1803 88.6352L95.5611 80.3531L81.0796 78.0355L47.4698 84.8642ZM56.5114 43.7821C56.5114 43.7821 45.1563 45.3438 42.6303 47.9579C40.5878 50.0717 40.2853 56.7267 40.8553 59.6198C41.7726 64.2761 49.4149 74.2564 49.4149 74.2564L61.8431 70.5835C61.8431 70.5835 57.0964 61.4833 56.4142 58.1603C55.6915 54.6401 56.5114 43.7821 56.5114 43.7821ZM93.6822 44.6061C91.3597 42.6393 81.9712 41.3938 81.9712 41.3938C81.9712 41.3938 85.5588 49.5874 85.9281 52.518C86.4283 56.4887 84.4742 68.4607 84.4742 68.4607L91.7467 69.6478C91.7467 69.6478 97.6609 59.5886 97.5649 55.7374C97.4914 52.7888 95.9237 46.5042 93.6822 44.6061ZM69.373 44.0123C69.373 44.0123 67.2938 49.4765 67.2029 51.4006C67.0333 54.9913 69.9347 65.5137 69.9347 65.5137L77.5035 60.5658L69.373 44.0123Z" fill="#F0C40C"/>
</g>
<defs>
<filter id="filter0_d_142_6" x="28" y="22" width="83.8085" height="86.8676" filterUnits="userSpaceOnUse" color-interpolation-filters="sRGB">
<feFlood flood-opacity="0" result="BackgroundImageFix"/>
<feColorMatrix in="SourceAlpha" type="matrix" values="0 0 0 0 0 0 0 0 0 0 0 0 0 0 0 0 0 0 127 0" result="hardAlpha"/>
<feOffset dy="8"/>
<feGaussianBlur stdDeviation="2"/>
<feComposite in2="hardAlpha" operator="out"/>
<feColorMatrix type="matrix" values="0 0 0 0 0 0 0 0 0 0 0 0 0 0 0 0 0 0 0.34 0"/>
<feBlend mode="normal" in2="BackgroundImageFix" result="effect1_dropShadow_142_6"/>
<feBlend mode="normal" in="SourceGraphic" in2="effect1_dropShadow_142_6" result="shape"/>
</filter>
</defs>
</svg>
