<svg width="678" height="676" viewBox="0 0 678 676" fill="none" xmlns="http://www.w3.org/2000/svg">
<g filter="url(#filter0_i_7_11494)">
<path d="M340.376 322.31L675.376 339.81L575.026 101.386L340.376 322.31Z" fill="#3B40E9"/>
</g>
<g filter="url(#filter1_i_7_11494)">
<path d="M343.876 321.809L99.876 101.809L346.876 0.809326L343.876 321.809Z" fill="#AE24D3"/>
</g>
<g filter="url(#filter2_i_7_11494)">
<path d="M343.376 320.809L574.876 102.309L346.376 0.809326L343.376 320.809Z" fill="#521DE9"/>
</g>
<g filter="url(#filter3_i_7_11494)">
<path d="M341.876 320.309L338.376 674.809L575.876 578.309L341.876 320.309Z" fill="#AE24D3"/>
</g>
<g filter="url(#filter4_i_7_11494)">
<path d="M98.876 574.809L338.876 675.309L343.376 317.809L98.876 574.809Z" fill="#521DE9"/>
</g>
<g filter="url(#filter5_i_7_11494)">
<path d="M343.876 320.809L0.875977 336.309L98.876 574.809L343.876 320.809Z" fill="#3B40E9"/>
</g>
<g filter="url(#filter6_i_7_11494)">
<path d="M100.376 101.809L1.37598 336.809L343.876 321.309L100.376 101.809Z" fill="#6369FF"/>
</g>
<g filter="url(#filter7_i_7_11494)">
<path d="M342.376 320.809L575.376 579.809L675.347 339.678L342.376 320.809Z" fill="#6369FF"/>
</g>
<path d="M145.805 422.719C144.154 423.446 142.547 423.795 140.984 423.766C139.417 423.726 138.017 423.337 136.784 422.6C135.561 421.858 134.631 420.808 133.994 419.449L138.917 417.282C139.366 418.185 140.078 418.768 141.051 419.031C142.031 419.279 143.03 419.178 144.049 418.729C144.843 418.38 145.462 417.896 145.907 417.278C146.362 416.655 146.625 415.957 146.694 415.184C146.759 414.4 146.607 413.589 146.239 412.753C145.87 411.916 145.368 411.254 144.73 410.766C144.093 410.279 143.386 409.995 142.608 409.915C141.836 409.819 141.048 409.948 140.243 410.302C139.535 410.614 138.918 411.059 138.391 411.636C137.864 412.214 137.527 412.83 137.38 413.484L132.505 414.669L128.065 401.528L142.721 395.076L144.548 399.227L134.075 403.837L136.121 410.1L136.25 410.044C136.408 409.27 136.826 408.503 137.504 407.744C138.192 406.98 139.061 406.367 140.112 405.904C141.55 405.272 142.98 405.045 144.404 405.225C145.838 405.4 147.142 405.934 148.316 406.826C149.489 407.718 150.414 408.93 151.089 410.464C151.802 412.084 152.059 413.686 151.861 415.271C151.658 416.846 151.039 418.29 150.003 419.604C148.974 420.902 147.575 421.94 145.805 422.719ZM166.672 413.534C164.634 414.431 162.679 414.716 160.806 414.388C158.939 414.044 157.218 413.131 155.643 411.647C154.074 410.149 152.718 408.101 151.576 405.506C150.438 402.921 149.852 400.542 149.816 398.368C149.777 396.183 150.26 394.286 151.268 392.677C152.286 391.064 153.809 389.811 155.836 388.919C157.874 388.022 159.826 387.745 161.693 388.088C163.571 388.427 165.294 389.346 166.863 390.844C168.443 392.339 169.804 394.383 170.946 396.979C172.089 399.575 172.683 401.957 172.729 404.126C172.77 406.285 172.281 408.171 171.263 409.784C170.251 411.382 168.72 412.632 166.672 413.534ZM164.83 409.351C165.806 408.921 166.49 408.249 166.881 407.334C167.278 406.404 167.382 405.257 167.191 403.894C167.012 402.526 166.542 400.979 165.782 399.252C165.017 397.515 164.191 396.118 163.303 395.062C162.427 394.001 161.511 393.303 160.557 392.967C159.609 392.617 158.646 392.656 157.67 393.086C156.222 393.723 155.421 394.927 155.266 396.698C155.106 398.459 155.598 400.637 156.74 403.232C157.5 404.959 158.319 406.353 159.196 407.414C160.083 408.47 161.004 409.166 161.958 409.501C162.908 409.826 163.865 409.776 164.83 409.351ZM189.87 397.56L189.318 396.305C188.893 395.34 188.707 394.365 188.761 393.382C188.814 392.398 189.126 391.492 189.697 390.665C190.262 389.827 191.108 389.16 192.234 388.664C193.393 388.154 194.464 387.971 195.449 388.113C196.444 388.251 197.32 388.64 198.076 389.281C198.837 389.906 199.431 390.701 199.856 391.666L200.408 392.921C200.833 393.887 201.021 394.867 200.972 395.861C200.919 396.845 200.607 397.75 200.036 398.578C199.466 399.405 198.612 400.069 197.475 400.569C196.338 401.07 195.272 401.251 194.277 401.113C193.281 400.975 192.403 400.594 191.641 399.969C190.885 399.328 190.295 398.525 189.87 397.56ZM192.712 394.811L193.265 396.066C193.51 396.623 193.876 397.09 194.361 397.465C194.846 397.841 195.443 397.873 196.151 397.561C196.869 397.245 197.251 396.788 197.296 396.192C197.341 395.597 197.236 395.009 196.981 394.43L196.429 393.175C196.174 392.596 195.817 392.119 195.358 391.745C194.894 391.36 194.294 391.336 193.559 391.673C192.857 391.969 192.475 392.425 192.413 393.041C192.358 393.642 192.457 394.232 192.712 394.811ZM171.529 389.271L170.976 388.016C170.551 387.05 170.366 386.076 170.419 385.092C170.478 384.093 170.793 383.18 171.364 382.352C171.945 381.52 172.794 380.859 173.909 380.368C175.057 379.862 176.128 379.679 177.124 379.817C178.13 379.95 179.011 380.337 179.766 380.977C180.517 381.607 181.1 382.407 181.514 383.377L182.066 384.632C182.502 385.592 182.693 386.565 182.64 387.548C182.586 388.532 182.274 389.438 181.704 390.265C181.129 391.082 180.275 391.746 179.143 392.257C178.001 392.747 176.927 392.925 175.921 392.792C174.926 392.654 174.047 392.272 173.285 391.647C172.534 391.017 171.949 390.225 171.529 389.271ZM174.403 386.507L174.955 387.762C175.21 388.341 175.578 388.813 176.059 389.178C176.539 389.542 177.126 389.566 177.818 389.248C178.531 388.947 178.91 388.499 178.955 387.903C179.01 387.302 178.905 386.715 178.64 386.14L178.087 384.885C177.843 384.302 177.486 383.825 177.016 383.456C176.552 383.071 175.956 383.039 175.226 383.36C174.518 383.672 174.141 384.139 174.095 384.761C174.055 385.367 174.158 385.95 174.403 386.507ZM181.09 406.803L187.012 375.579L190.085 374.226L184.163 405.45L181.09 406.803Z" fill="white"/>
<path d="M551.653 231.663C553.316 230.961 554.928 230.636 556.489 230.689C558.055 230.753 559.45 231.163 560.672 231.919C561.883 232.68 562.797 233.744 563.413 235.113L558.457 237.205C558.022 236.294 557.32 235.7 556.35 235.423C555.375 235.16 554.374 235.246 553.348 235.679C552.55 236.016 551.923 236.49 551.469 237.102C551.004 237.718 550.731 238.412 550.65 239.184C550.573 239.967 550.713 240.779 551.068 241.621C551.424 242.464 551.916 243.133 552.546 243.631C553.176 244.128 553.879 244.423 554.655 244.515C555.426 244.622 556.216 244.505 557.025 244.163C557.738 243.862 558.362 243.427 558.897 242.857C559.433 242.288 559.779 241.677 559.937 241.026L564.829 239.914L569.069 253.122L554.316 259.35L552.552 255.171L563.095 250.721L561.144 244.427L561.014 244.482C560.844 245.254 560.414 246.014 559.726 246.763C559.026 247.516 558.147 248.116 557.089 248.562C555.643 249.173 554.209 249.378 552.788 249.176C551.357 248.979 550.061 248.426 548.901 247.516C547.741 246.607 546.835 245.38 546.183 243.836C545.495 242.206 545.262 240.6 545.485 239.017C545.712 237.446 546.353 236.012 547.408 234.714C548.457 233.432 549.872 232.415 551.653 231.663ZM530.649 240.529C532.7 239.664 534.66 239.409 536.527 239.765C538.389 240.137 540.096 241.076 541.648 242.584C543.194 244.106 544.518 246.174 545.621 248.786C546.719 251.388 547.27 253.776 547.272 255.951C547.278 258.136 546.766 260.025 545.734 261.618C544.691 263.216 543.149 264.445 541.109 265.307C539.058 266.173 537.101 266.42 535.24 266.048C533.368 265.681 531.659 264.736 530.113 263.213C528.556 261.695 527.226 259.63 526.123 257.017C525.02 254.405 524.462 252.014 524.45 249.844C524.441 247.685 524.959 245.807 526.001 244.209C527.038 242.626 528.587 241.4 530.649 240.529ZM532.427 244.74C531.444 245.155 530.75 245.816 530.345 246.725C529.934 247.649 529.813 248.794 529.983 250.16C530.142 251.53 530.588 253.085 531.322 254.823C532.06 256.572 532.865 257.981 533.736 259.051C534.596 260.125 535.501 260.837 536.45 261.187C537.393 261.552 538.356 261.527 539.338 261.112C540.796 260.497 541.615 259.305 541.797 257.537C541.984 255.779 541.526 253.594 540.423 250.981C539.689 249.243 538.892 247.837 538.031 246.762C537.16 245.693 536.25 244.983 535.301 244.633C534.356 244.294 533.398 244.33 532.427 244.74ZM507.21 256.148L507.744 257.412C508.154 258.383 508.325 259.36 508.256 260.343C508.188 261.326 507.862 262.227 507.279 263.046C506.701 263.875 505.844 264.529 504.711 265.007C503.545 265.5 502.471 265.667 501.488 265.509C500.495 265.356 499.626 264.954 498.88 264.302C498.128 263.665 497.547 262.861 497.136 261.889L496.603 260.626C496.193 259.655 496.02 258.672 496.084 257.678C496.152 256.695 496.478 255.795 497.061 254.976C497.644 254.158 498.508 253.507 499.652 253.024C500.796 252.54 501.865 252.375 502.858 252.529C503.852 252.682 504.724 253.077 505.476 253.713C506.222 254.365 506.8 255.177 507.21 256.148ZM504.327 258.854L503.793 257.591C503.556 257.029 503.198 256.557 502.718 256.175C502.239 255.792 501.643 255.751 500.93 256.052C500.207 256.357 499.818 256.808 499.764 257.403C499.71 257.998 499.806 258.587 500.052 259.17L500.586 260.433C500.832 261.016 501.182 261.498 501.635 261.879C502.093 262.271 502.692 262.304 503.432 261.979C504.139 261.694 504.527 261.243 504.599 260.628C504.663 260.028 504.573 259.437 504.327 258.854ZM525.424 264.716L525.957 265.979C526.367 266.951 526.538 267.928 526.469 268.911C526.395 269.909 526.066 270.818 525.483 271.636C524.889 272.459 524.031 273.108 522.908 273.582C521.753 274.069 520.679 274.237 519.685 274.084C518.681 273.935 517.806 273.535 517.061 272.883C516.319 272.242 515.749 271.433 515.35 270.457L514.816 269.194C514.395 268.227 514.219 267.252 514.288 266.269C514.356 265.286 514.682 264.385 515.265 263.567C515.852 262.759 516.716 262.108 517.856 261.614C519.005 261.142 520.081 260.98 521.085 261.129C522.078 261.282 522.951 261.677 523.703 262.313C524.444 262.954 525.018 263.755 525.424 264.716ZM522.507 267.435L521.974 266.172C521.728 265.589 521.368 265.112 520.893 264.74C520.418 264.368 519.831 264.336 519.134 264.643C518.417 264.933 518.032 265.375 517.978 265.97C517.913 266.57 518.009 267.159 518.266 267.738L518.799 269.001C519.034 269.588 519.384 270.07 519.848 270.447C520.306 270.839 520.902 270.88 521.636 270.57C522.349 270.269 522.733 269.808 522.789 269.186C522.838 268.58 522.744 267.997 522.507 267.435ZM516.13 247.04L509.733 278.17L506.64 279.476L513.037 248.346L516.13 247.04Z" fill="white"/>
<path d="M261.876 535.521L258.203 534.009L253.75 522.102C253.349 521.075 252.97 520.197 252.611 519.466C252.242 518.731 251.84 518.122 251.405 517.639C250.959 517.152 250.417 516.776 249.778 516.513C249.062 516.219 248.383 516.129 247.74 516.245C247.097 516.36 246.521 516.637 246.012 517.073C245.502 517.51 245.101 518.086 244.806 518.801C244.503 519.538 244.389 520.245 244.465 520.923C244.53 521.596 244.782 522.2 245.221 522.736C245.653 523.256 246.259 523.676 247.04 523.997L245.033 528.874C243.44 528.218 242.211 527.294 241.345 526.102C240.474 524.894 239.984 523.514 239.875 521.961C239.771 520.398 240.067 518.771 240.762 517.08C241.471 515.357 242.4 513.978 243.549 512.942C244.686 511.903 245.944 511.248 247.322 510.979C248.689 510.705 250.077 510.858 251.486 511.438C252.396 511.812 253.222 512.361 253.964 513.085C254.694 513.804 255.42 514.843 256.14 516.204C256.849 517.56 257.613 519.383 258.432 521.672L260.437 526.64L260.615 526.714L264.803 516.538L268.981 518.257L261.876 535.521ZM274.035 506.898C273.349 508.567 272.432 509.933 271.285 510.994C270.128 512.051 268.849 512.741 267.449 513.065C266.053 513.377 264.655 513.265 263.254 512.726L265.301 507.752C266.251 508.092 267.168 508.02 268.052 507.535C268.93 507.034 269.58 506.269 270.004 505.239C270.334 504.438 270.445 503.66 270.337 502.905C270.234 502.141 269.939 501.455 269.453 500.85C268.957 500.24 268.286 499.761 267.441 499.413C266.595 499.065 265.774 498.937 264.977 499.027C264.179 499.117 263.472 499.402 262.856 499.884C262.233 500.35 261.755 500.989 261.42 501.802C261.126 502.517 260.989 503.266 261.01 504.047C261.03 504.828 261.214 505.506 261.561 506.08L258.868 510.313L246.56 503.917L252.654 489.108L256.848 490.834L252.493 501.416L258.309 504.513L258.362 504.383C257.94 503.715 257.71 502.873 257.672 501.856C257.639 500.829 257.841 499.784 258.278 498.722C258.875 497.27 259.75 496.115 260.901 495.258C262.056 494.391 263.366 493.871 264.83 493.701C266.294 493.531 267.801 493.764 269.351 494.402C270.987 495.075 272.283 496.052 273.239 497.333C274.184 498.609 274.738 500.079 274.903 501.743C275.06 503.392 274.771 505.11 274.035 506.898ZM279.387 480.037L278.119 479.515C277.144 479.114 276.335 478.54 275.691 477.794C275.048 477.047 274.645 476.178 274.483 475.187C274.31 474.19 274.458 473.123 274.926 471.985C275.408 470.815 276.053 469.94 276.862 469.36C277.675 468.77 278.576 468.444 279.565 468.382C280.547 468.305 281.526 468.467 282.501 468.868L283.769 469.39C284.744 469.791 285.559 470.367 286.213 471.118C286.857 471.864 287.259 472.733 287.421 473.725C287.583 474.717 287.428 475.787 286.955 476.936C286.483 478.085 285.84 478.954 285.026 479.544C284.213 480.135 283.315 480.469 282.333 480.546C281.345 480.608 280.363 480.438 279.387 480.037ZM279.531 476.085L280.799 476.607C281.362 476.839 281.949 476.922 282.559 476.856C283.169 476.791 283.621 476.4 283.916 475.685C284.214 474.959 284.174 474.365 283.793 473.905C283.412 473.444 282.929 473.093 282.344 472.852L281.076 472.33C280.491 472.09 279.903 471.993 279.313 472.042C278.712 472.086 278.263 472.484 277.966 473.236C277.665 473.936 277.706 474.53 278.089 475.017C278.465 475.488 278.946 475.845 279.531 476.085ZM260.42 486.773L259.152 486.251C258.177 485.85 257.368 485.276 256.724 484.53C256.075 483.768 255.669 482.891 255.507 481.899C255.349 480.897 255.502 479.832 255.966 478.705C256.443 477.545 257.088 476.67 257.901 476.08C258.719 475.479 259.622 475.147 260.611 475.085C261.589 475.019 262.563 475.192 263.534 475.604L264.802 476.126C265.782 476.516 266.593 477.084 267.236 477.831C267.88 478.577 268.282 479.446 268.445 480.438C268.596 481.425 268.44 482.495 267.979 483.649C267.495 484.793 266.844 485.666 266.027 486.267C265.213 486.857 264.316 487.191 263.333 487.268C262.356 487.335 261.385 487.17 260.42 486.773ZM260.577 482.789L261.845 483.31C262.43 483.551 263.022 483.637 263.622 483.566C264.221 483.496 264.66 483.107 264.939 482.398C265.244 481.687 265.206 481.101 264.826 480.64C264.449 480.169 263.967 479.818 263.377 479.588L262.109 479.066C261.528 478.814 260.941 478.718 260.346 478.778C259.745 478.822 259.293 479.212 258.989 479.949C258.695 480.664 258.747 481.262 259.145 481.743C259.536 482.208 260.014 482.557 260.577 482.789ZM279.463 492.785L262.093 466.172L263.371 463.067L280.741 489.68L279.463 492.785Z" fill="white"/>
<path d="M432.213 102.526L435.819 104.193L439.761 116.278C440.118 117.321 440.46 118.215 440.787 118.96C441.124 119.71 441.5 120.335 441.914 120.836C442.338 121.342 442.864 121.74 443.492 122.031C444.194 122.355 444.869 122.473 445.516 122.385C446.164 122.297 446.751 122.046 447.279 121.631C447.806 121.217 448.232 120.658 448.556 119.956C448.891 119.233 449.034 118.531 448.987 117.851C448.951 117.176 448.725 116.561 448.309 116.008C447.9 115.47 447.312 115.024 446.546 114.67L448.758 109.883C450.322 110.606 451.511 111.581 452.324 112.809C453.144 114.053 453.575 115.453 453.617 117.009C453.655 118.575 453.29 120.188 452.523 121.848C451.741 123.539 450.755 124.878 449.563 125.863C448.383 126.854 447.098 127.454 445.71 127.665C444.332 127.88 442.952 127.668 441.569 127.029C440.676 126.616 439.874 126.032 439.164 125.278C438.464 124.529 437.784 123.459 437.123 122.069C436.472 120.684 435.786 118.83 435.064 116.509L433.274 111.459L433.098 111.378L428.481 121.367L424.381 119.471L432.213 102.526ZM418.847 130.605C419.604 128.967 420.578 127.642 421.769 126.63C422.97 125.623 424.277 124.988 425.69 124.724C427.098 124.471 428.49 124.643 429.866 125.241L427.61 130.123C426.675 129.743 425.756 129.777 424.852 130.224C423.954 130.687 423.271 131.423 422.804 132.434C422.441 133.221 422.296 133.994 422.372 134.751C422.443 135.52 422.708 136.217 423.168 136.843C423.638 137.473 424.288 137.98 425.118 138.364C425.948 138.747 426.763 138.911 427.563 138.855C428.364 138.799 429.082 138.543 429.718 138.089C430.36 137.65 430.865 137.031 431.234 136.233C431.559 135.531 431.727 134.789 431.74 134.008C431.753 133.226 431.598 132.541 431.276 131.954L434.146 127.839L446.171 134.752L439.453 149.288L435.336 147.386L440.137 136.998L434.458 133.657L434.399 133.785C434.793 134.47 434.987 135.321 434.981 136.339C434.971 137.367 434.725 138.402 434.243 139.444C433.584 140.87 432.661 141.986 431.475 142.793C430.284 143.611 428.953 144.074 427.483 144.182C426.013 144.29 424.517 143.992 422.996 143.289C421.39 142.547 420.136 141.516 419.236 140.196C418.346 138.881 417.855 137.389 417.762 135.719C417.674 134.065 418.036 132.36 418.847 130.605ZM412.358 157.214L413.602 157.79C414.56 158.232 415.344 158.84 415.955 159.613C416.566 160.386 416.931 161.271 417.051 162.269C417.181 163.272 416.988 164.331 416.472 165.448C415.941 166.597 415.259 167.444 414.427 167.989C413.589 168.544 412.675 168.831 411.685 168.851C410.7 168.887 409.729 168.683 408.772 168.241L407.527 167.666C406.57 167.223 405.78 166.613 405.159 165.835C404.548 165.062 404.182 164.177 404.062 163.179C403.943 162.181 404.143 161.118 404.665 159.991C405.186 158.863 405.865 158.022 406.703 157.467C407.54 156.911 408.451 156.616 409.436 156.58C410.426 156.56 411.4 156.772 412.358 157.214ZM412.046 161.156L410.802 160.581C410.248 160.325 409.666 160.217 409.053 160.257C408.441 160.297 407.973 160.668 407.648 161.37C407.319 162.083 407.335 162.677 407.695 163.154C408.056 163.63 408.523 164.001 409.098 164.267L410.342 164.842C410.917 165.108 411.5 165.229 412.092 165.205C412.694 165.187 413.16 164.808 413.488 164.069C413.818 163.383 413.803 162.788 413.441 162.285C413.086 161.798 412.621 161.422 412.046 161.156ZM431.594 151.291L432.839 151.867C433.796 152.309 434.58 152.917 435.191 153.69C435.808 154.478 436.176 155.372 436.296 156.369C436.411 157.378 436.213 158.435 435.701 159.541C435.175 160.68 434.493 161.526 433.656 162.082C432.813 162.648 431.897 162.94 430.906 162.96C429.927 162.985 428.961 162.771 428.008 162.318L426.764 161.743C425.801 161.311 425.015 160.708 424.404 159.935C423.793 159.162 423.427 158.277 423.308 157.279C423.198 156.286 423.399 155.224 423.91 154.091C424.441 152.969 425.129 152.124 425.971 151.558C426.809 151.003 427.72 150.708 428.705 150.672C429.684 150.647 430.647 150.854 431.594 151.291ZM431.268 155.265L430.023 154.69C429.449 154.425 428.861 154.314 428.259 154.359C427.658 154.403 427.202 154.774 426.893 155.47C426.558 156.168 426.571 156.754 426.932 157.231C427.288 157.718 427.755 158.089 428.334 158.344L429.579 158.919C430.149 159.195 430.732 159.316 431.328 159.282C431.931 159.264 432.399 158.893 432.733 158.17C433.058 157.468 433.032 156.868 432.655 156.371C432.283 155.89 431.821 155.521 431.268 155.265ZM412.824 144.475L429.046 171.803L427.638 174.85L411.415 147.522L412.824 144.475Z" fill="white"/>
<path d="M125.318 257.695L143.085 241.466L143.147 241.302L131.333 236.814L132.943 232.574L150.131 239.104L148.496 243.409L130.675 259.73L125.318 257.695ZM151.419 267.987C149.732 267.346 148.342 266.467 147.25 265.35C146.162 264.222 145.437 262.962 145.075 261.571C144.724 260.185 144.799 258.784 145.299 257.369L150.327 259.279C150.013 260.238 150.111 261.153 150.62 262.023C151.144 262.887 151.927 263.516 152.967 263.911C153.778 264.219 154.559 264.309 155.31 264.181C156.071 264.056 156.748 263.743 157.34 263.241C157.936 262.728 158.397 262.044 158.721 261.189C159.046 260.335 159.152 259.51 159.04 258.716C158.929 257.921 158.624 257.222 158.126 256.619C157.643 256.01 156.99 255.549 156.169 255.237C155.446 254.962 154.694 254.846 153.913 254.888C153.133 254.93 152.46 255.132 151.897 255.494L147.591 252.919L153.648 240.44L168.618 246.126L167.007 250.366L156.31 246.302L153.373 252.201L153.505 252.25C154.161 251.81 154.997 251.557 156.012 251.492C157.038 251.43 158.088 251.603 159.162 252.011C160.63 252.569 161.808 253.411 162.696 254.538C163.595 255.67 164.149 256.965 164.36 258.424C164.57 259.883 164.378 261.395 163.783 262.962C163.155 264.616 162.214 265.938 160.96 266.929C159.71 267.908 158.256 268.503 156.597 268.712C154.953 268.915 153.227 268.673 151.419 267.987ZM178.417 272.602L178.904 271.32C179.279 270.334 179.83 269.509 180.558 268.846C181.287 268.182 182.145 267.756 183.132 267.567C184.123 267.367 185.193 267.485 186.344 267.922C187.527 268.371 188.419 268.992 189.021 269.785C189.633 270.582 189.984 271.473 190.073 272.46C190.177 273.44 190.042 274.423 189.667 275.409L189.18 276.69C188.806 277.676 188.252 278.506 187.52 279.181C186.791 279.844 185.934 280.271 184.947 280.46C183.96 280.649 182.886 280.523 181.724 280.082C180.563 279.641 179.676 279.022 179.064 278.225C178.451 277.428 178.093 276.54 177.989 275.56C177.9 274.574 178.043 273.588 178.417 272.602ZM182.371 272.637L181.884 273.919C181.668 274.488 181.601 275.077 181.683 275.685C181.766 276.293 182.169 276.734 182.892 277.009C183.626 277.288 184.218 277.231 184.668 276.838C185.118 276.445 185.456 275.952 185.68 275.361L186.167 274.079C186.392 273.487 186.472 272.897 186.407 272.309C186.347 271.709 185.936 271.271 185.176 270.995C184.468 270.713 183.876 270.771 183.4 271.166C182.939 271.555 182.596 272.045 182.371 272.637ZM171.165 253.826L171.652 252.544C172.026 251.558 172.578 250.733 173.306 250.07C174.05 249.4 174.915 248.97 175.902 248.781C176.9 248.596 177.968 248.72 179.108 249.152C180.28 249.598 181.172 250.219 181.785 251.015C182.408 251.816 182.764 252.71 182.853 253.697C182.947 254.672 182.8 255.651 182.415 256.633L181.928 257.915C181.564 258.905 181.018 259.731 180.29 260.395C179.562 261.058 178.704 261.485 177.717 261.674C176.734 261.852 175.66 261.726 174.495 261.296C173.338 260.844 172.447 260.217 171.824 259.416C171.212 258.62 170.853 257.731 170.749 256.752C170.656 255.776 170.794 254.801 171.165 253.826ZM175.152 253.874L174.665 255.155C174.44 255.747 174.371 256.341 174.458 256.938C174.544 257.535 174.946 257.964 175.662 258.223C176.381 258.509 176.965 258.455 177.416 258.062C177.877 257.673 178.214 257.181 178.428 256.585L178.915 255.303C179.151 254.716 179.231 254.126 179.155 253.533C179.094 252.933 178.692 252.492 177.947 252.209C177.224 251.934 176.627 252.002 176.158 252.413C175.704 252.817 175.368 253.304 175.152 253.874ZM165.676 273.026L191.804 254.934L194.942 256.127L168.815 274.219L165.676 273.026Z" fill="white"/>
<path d="M559.746 408.283L540.904 423.25L540.83 423.409L552.308 428.701L550.409 432.819L533.712 425.121L535.64 420.939L554.542 405.884L559.746 408.283ZM534.416 396.218C536.055 396.974 537.381 397.946 538.394 399.136C539.402 400.336 540.038 401.643 540.303 403.055C540.558 404.463 540.387 405.855 539.791 407.232L534.906 404.98C535.285 404.045 535.251 403.126 534.803 402.223C534.339 401.325 533.602 400.643 532.591 400.177C531.803 399.814 531.031 399.671 530.273 399.747C529.504 399.819 528.807 400.085 528.182 400.545C527.552 401.016 527.046 401.666 526.663 402.497C526.281 403.327 526.118 404.142 526.175 404.942C526.231 405.743 526.487 406.461 526.943 407.097C527.383 407.738 528.002 408.243 528.8 408.611C529.502 408.935 530.244 409.102 531.026 409.114C531.807 409.126 532.492 408.971 533.08 408.648L537.197 411.514L530.295 423.546L515.753 416.842L517.651 412.724L528.044 417.514L531.379 411.832L531.252 411.774C530.567 412.168 529.716 412.362 528.698 412.358C527.67 412.348 526.635 412.103 525.592 411.623C524.166 410.965 523.049 410.044 522.24 408.858C521.421 407.667 520.957 406.337 520.847 404.867C520.738 403.397 521.034 401.901 521.736 400.38C522.476 398.773 523.506 397.518 524.825 396.617C526.139 395.726 527.631 395.233 529.301 395.138C530.955 395.049 532.66 395.409 534.416 396.218ZM507.8 389.755L507.226 391C506.785 391.958 506.178 392.743 505.405 393.354C504.633 393.966 503.748 394.332 502.75 394.453C501.748 394.585 500.688 394.393 499.57 393.878C498.421 393.348 497.573 392.667 497.028 391.834C496.472 390.997 496.183 390.084 496.162 389.093C496.126 388.109 496.329 387.138 496.77 386.18L497.344 384.935C497.786 383.977 498.395 383.187 499.172 382.564C499.945 381.953 500.83 381.586 501.827 381.466C502.825 381.345 503.888 381.545 505.016 382.065C506.144 382.585 506.986 383.263 507.542 384.1C508.098 384.937 508.395 385.848 508.431 386.833C508.452 387.823 508.242 388.797 507.8 389.755ZM503.858 389.447L504.432 388.202C504.687 387.649 504.794 387.066 504.754 386.454C504.714 385.842 504.342 385.374 503.64 385.05C502.927 384.721 502.332 384.737 501.856 385.098C501.38 385.46 501.009 385.927 500.744 386.502L500.17 387.747C499.905 388.322 499.785 388.905 499.809 389.497C499.828 390.099 500.207 390.564 500.946 390.892C501.633 391.222 502.228 391.206 502.73 390.844C503.217 390.487 503.593 390.022 503.858 389.447ZM513.742 408.986L513.168 410.231C512.726 411.189 512.119 411.973 511.347 412.585C510.559 413.203 509.666 413.572 508.669 413.692C507.66 413.808 506.603 413.611 505.496 413.101C504.357 412.576 503.51 411.895 502.954 411.058C502.387 410.216 502.093 409.3 502.072 408.309C502.047 407.33 502.26 406.363 502.712 405.41L503.286 404.165C503.717 403.203 504.319 402.415 505.091 401.804C505.863 401.192 506.748 400.826 507.746 400.705C508.739 400.595 509.802 400.794 510.935 401.304C512.058 401.835 512.903 402.521 513.469 403.363C514.026 404.2 514.322 405.111 514.358 406.095C514.384 407.075 514.179 408.039 513.742 408.986ZM509.768 408.663L510.342 407.418C510.607 406.843 510.717 406.255 510.671 405.654C510.626 405.052 510.255 404.597 509.558 404.289C508.861 403.955 508.274 403.968 507.798 404.329C507.311 404.685 506.94 405.153 506.686 405.733L506.112 406.978C505.837 407.548 505.716 408.131 505.751 408.728C505.77 409.33 506.141 409.798 506.865 410.132C507.567 410.455 508.167 410.429 508.663 410.051C509.145 409.679 509.513 409.217 509.768 408.663ZM520.54 390.209L493.228 406.458L490.179 405.053L517.491 388.803L520.54 390.209Z" fill="white"/>
<path d="M260.828 104.414L236.875 115.008L234.642 109.96L253.789 101.492L253.725 101.348L247.851 97.4105L252.352 95.4197L258.731 99.6719L260.828 104.414ZM242.007 127.481C241.106 125.444 240.818 123.49 241.143 121.616C241.483 119.749 242.393 118.026 243.874 116.449C245.37 114.877 247.415 113.518 250.008 112.371C252.591 111.229 254.97 110.638 257.144 110.599C259.328 110.555 261.226 111.036 262.836 112.041C264.452 113.056 265.707 114.577 266.603 116.602C267.504 118.639 267.784 120.591 267.444 122.458C267.108 124.336 266.193 126.061 264.696 127.633C263.205 129.215 261.163 130.579 258.569 131.726C255.975 132.874 253.594 133.472 251.425 133.522C249.266 133.566 247.379 133.081 245.764 132.066C244.164 131.056 242.912 129.528 242.007 127.481ZM246.186 125.632C246.618 126.607 247.291 127.29 248.207 127.679C249.138 128.075 250.284 128.176 251.647 127.984C253.015 127.802 254.561 127.329 256.287 126.566C258.023 125.798 259.418 124.97 260.473 124.08C261.532 123.202 262.229 122.285 262.563 121.33C262.912 120.381 262.871 119.419 262.439 118.444C261.799 116.997 260.594 116.198 258.822 116.046C257.062 115.889 254.884 116.384 252.291 117.531C250.565 118.295 249.173 119.115 248.113 119.994C247.059 120.883 246.365 121.805 246.031 122.76C245.708 123.71 245.76 124.668 246.186 125.632ZM251.548 149.055C250.648 147.018 250.36 145.064 250.684 143.19C251.024 141.323 251.935 139.6 253.416 138.023C254.912 136.451 256.957 135.092 259.55 133.945C262.133 132.803 264.511 132.212 266.685 132.173C268.87 132.13 270.768 132.61 272.378 133.615C273.993 134.63 275.249 136.151 276.145 138.176C277.045 140.213 277.325 142.165 276.985 144.032C276.65 145.91 275.734 147.635 274.238 149.207C272.747 150.789 270.704 152.153 268.111 153.301C265.517 154.448 263.136 155.046 260.966 155.096C258.808 155.14 256.921 154.655 255.306 153.64C253.706 152.63 252.454 151.102 251.548 149.055ZM255.728 147.206C256.159 148.181 256.833 148.864 257.748 149.253C258.679 149.649 259.826 149.75 261.189 149.558C262.556 149.376 264.103 148.903 265.828 148.14C267.564 147.372 268.96 146.544 270.015 145.654C271.074 144.776 271.77 143.859 272.104 142.904C272.453 141.955 272.412 140.993 271.981 140.018C271.341 138.571 270.135 137.772 268.364 137.62C266.603 137.463 264.426 137.958 261.832 139.105C260.107 139.869 258.714 140.689 257.655 141.568C256.6 142.457 255.906 143.379 255.573 144.334C255.25 145.284 255.301 146.242 255.728 147.206ZM267.562 172.225L268.816 171.671C269.781 171.244 270.755 171.057 271.739 171.109C272.723 171.16 273.629 171.471 274.457 172.04C275.296 172.604 275.965 173.449 276.462 174.574C276.974 175.732 277.16 176.803 277.019 177.788C276.882 178.784 276.495 179.66 275.856 180.417C275.232 181.179 274.438 181.774 273.473 182.201L272.219 182.755C271.255 183.182 270.275 183.372 269.28 183.325C268.297 183.273 267.39 182.962 266.562 182.393C265.734 181.824 265.068 180.972 264.566 179.836C264.064 178.7 263.88 177.634 264.017 176.638C264.153 175.642 264.533 174.763 265.157 174.001C265.796 173.244 266.598 172.652 267.562 172.225ZM270.316 175.063L269.062 175.617C268.505 175.864 268.039 176.23 267.665 176.716C267.29 177.202 267.259 177.799 267.572 178.506C267.89 179.224 268.347 179.605 268.943 179.649C269.539 179.693 270.126 179.587 270.705 179.331L271.959 178.776C272.537 178.521 273.013 178.163 273.387 177.703C273.771 177.238 273.794 176.639 273.456 175.904C273.159 175.203 272.702 174.822 272.086 174.761C271.485 174.706 270.895 174.807 270.316 175.063ZM275.82 153.87L277.074 153.315C278.038 152.888 279.013 152.701 279.996 152.753C280.996 152.81 281.91 153.124 282.738 153.693C283.571 154.273 284.234 155.12 284.727 156.235C285.234 157.381 285.42 158.452 285.283 159.448C285.152 160.455 284.766 161.336 284.127 162.093C283.499 162.845 282.7 163.429 281.731 163.845L280.477 164.399C279.517 164.837 278.545 165.029 277.561 164.978C276.577 164.926 275.671 164.616 274.843 164.046C274.025 163.473 273.36 162.62 272.847 161.489C272.355 160.348 272.175 159.274 272.306 158.268C272.443 157.272 272.823 156.393 273.446 155.63C274.075 154.878 274.866 154.291 275.82 153.87ZM278.588 156.739L277.334 157.294C276.755 157.55 276.284 157.918 275.92 158.4C275.557 158.881 275.534 159.467 275.853 160.159C276.155 160.871 276.604 161.249 277.2 161.293C277.801 161.348 278.388 161.242 278.962 160.975L280.216 160.421C280.8 160.175 281.276 159.817 281.644 159.347C282.028 158.882 282.059 158.286 281.737 157.557C281.424 156.85 280.956 156.473 280.334 156.428C279.727 156.389 279.145 156.493 278.588 156.739ZM258.304 163.461L289.538 169.329L290.896 172.4L259.662 166.532L258.304 163.461Z" fill="white"/>
<path d="M412.276 546.48L436.621 536.821L438.656 541.952L419.196 549.673L419.255 549.82L424.972 553.981L420.397 555.796L414.188 551.3L412.276 546.48ZM431.976 524.16C432.797 526.229 433.009 528.194 432.612 530.053C432.2 531.906 431.223 533.592 429.683 535.111C428.127 536.623 426.031 537.903 423.395 538.948C420.77 539.99 418.37 540.488 416.197 540.443C414.012 540.402 412.134 539.848 410.564 538.782C408.989 537.705 407.794 536.137 406.977 534.078C406.156 532.008 405.951 530.047 406.363 528.194C406.771 526.33 407.753 524.642 409.309 523.13C410.86 521.606 412.954 520.322 415.59 519.276C418.226 518.23 420.629 517.725 422.798 517.759C424.957 517.798 426.824 518.356 428.398 519.433C429.958 520.504 431.15 522.079 431.976 524.16ZM427.728 525.845C427.334 524.854 426.688 524.146 425.788 523.721C424.873 523.29 423.731 523.144 422.362 523.284C420.988 523.413 419.425 523.825 417.671 524.521C415.906 525.221 414.48 525.995 413.392 526.843C412.299 527.68 411.568 528.569 411.197 529.51C410.812 530.445 410.815 531.408 411.209 532.399C411.792 533.869 412.966 534.715 414.73 534.935C416.483 535.16 418.678 534.749 421.314 533.704C423.068 533.008 424.491 532.241 425.584 531.405C426.672 530.557 427.401 529.662 427.772 528.721C428.131 527.784 428.116 526.825 427.728 525.845ZM423.276 502.232C424.097 504.302 424.309 506.267 423.913 508.126C423.5 509.979 422.524 511.665 420.983 513.184C419.428 514.696 417.332 515.975 414.696 517.021C412.07 518.063 409.671 518.561 407.497 518.516C405.312 518.475 403.435 517.921 401.865 516.855C400.29 515.777 399.094 514.209 398.277 512.151C397.456 510.081 397.252 508.12 397.664 506.267C398.072 504.403 399.054 502.715 400.609 501.203C402.161 499.679 404.255 498.395 406.891 497.349C409.527 496.303 411.93 495.797 414.099 495.832C416.258 495.87 418.124 496.428 419.699 497.506C421.258 498.576 422.451 500.152 423.276 502.232ZM419.028 503.918C418.635 502.927 417.988 502.219 417.089 501.794C416.174 501.363 415.032 501.217 413.662 501.357C412.289 501.486 410.725 501.898 408.972 502.594C407.207 503.294 405.781 504.068 404.692 504.916C403.6 505.753 402.868 506.642 402.498 507.583C402.112 508.517 402.116 509.48 402.509 510.472C403.093 511.942 404.266 512.788 406.031 513.008C407.784 513.233 409.979 512.822 412.615 511.776C414.368 511.081 415.792 510.314 416.884 509.477C417.972 508.63 418.702 507.735 419.072 506.794C419.432 505.857 419.417 504.898 419.028 503.918ZM408.171 478.459L406.897 478.965C405.916 479.354 404.936 479.504 403.954 479.414C402.973 479.324 402.08 478.979 401.274 478.378C400.458 477.782 399.822 476.912 399.369 475.768C398.902 474.591 398.758 473.514 398.937 472.535C399.112 471.545 399.533 470.685 400.201 469.953C400.854 469.215 401.67 468.652 402.651 468.263L403.925 467.757C404.906 467.368 405.892 467.217 406.884 467.302C407.865 467.392 408.758 467.737 409.564 468.338C410.37 468.938 411.002 469.816 411.46 470.971C411.918 472.125 412.059 473.198 411.885 474.187C411.71 475.177 411.296 476.041 410.644 476.779C409.976 477.51 409.152 478.07 408.171 478.459ZM405.529 475.517L406.803 475.012C407.37 474.787 407.85 474.439 408.243 473.968C408.636 473.497 408.689 472.902 408.404 472.183C408.115 471.453 407.673 471.055 407.079 470.988C406.485 470.921 405.894 471.004 405.306 471.237L404.031 471.743C403.443 471.976 402.954 472.316 402.563 472.761C402.161 473.21 402.115 473.808 402.424 474.556C402.694 475.268 403.136 475.666 403.749 475.751C404.347 475.829 404.941 475.751 405.529 475.517ZM399.209 496.482L397.935 496.988C396.954 497.376 395.974 497.526 394.993 497.436C393.996 497.34 393.095 496.991 392.289 496.391C391.479 495.779 390.85 494.907 390.4 493.774C389.938 492.608 389.794 491.531 389.969 490.541C390.139 489.541 390.558 488.675 391.226 487.943C391.883 487.216 392.704 486.663 393.689 486.285L394.963 485.78C395.939 485.38 396.918 485.225 397.899 485.315C398.88 485.404 399.774 485.75 400.579 486.35C401.374 486.955 402.006 487.833 402.475 488.983C402.922 490.142 403.061 491.222 402.89 492.223C402.715 493.212 402.302 494.076 401.649 494.814C400.992 495.541 400.179 496.097 399.209 496.482ZM396.554 493.507L397.829 493.002C398.417 492.768 398.902 492.418 399.284 491.951C399.666 491.485 399.711 490.899 399.42 490.196C399.145 489.472 398.711 489.077 398.117 489.01C397.519 488.932 396.928 489.016 396.344 489.26L395.07 489.766C394.477 489.988 393.988 490.327 393.601 490.783C393.199 491.232 393.146 491.828 393.439 492.568C393.725 493.287 394.177 493.681 394.797 493.75C395.402 493.813 395.988 493.732 396.554 493.507ZM417.083 487.575L386.1 480.503L384.861 477.382L415.845 484.454L417.083 487.575Z" fill="white"/>
<defs>
<filter id="filter0_i_7_11494" x="340.376" y="101.386" width="336" height="246.424" filterUnits="userSpaceOnUse" color-interpolation-filters="sRGB">
<feFlood flood-opacity="0" result="BackgroundImageFix"/>
<feBlend mode="normal" in="SourceGraphic" in2="BackgroundImageFix" result="shape"/>
<feColorMatrix in="SourceAlpha" type="matrix" values="0 0 0 0 0 0 0 0 0 0 0 0 0 0 0 0 0 0 127 0" result="hardAlpha"/>
<feOffset dx="1" dy="8"/>
<feGaussianBlur stdDeviation="8"/>
<feComposite in2="hardAlpha" operator="arithmetic" k2="-1" k3="1"/>
<feColorMatrix type="matrix" values="0 0 0 0 0 0 0 0 0 0 0 0 0 0 0 0 0 0 0.25 0"/>
<feBlend mode="normal" in2="shape" result="effect1_innerShadow_7_11494"/>
</filter>
<filter id="filter1_i_7_11494" x="96.876" y="-8.19067" width="250" height="330" filterUnits="userSpaceOnUse" color-interpolation-filters="sRGB">
<feFlood flood-opacity="0" result="BackgroundImageFix"/>
<feBlend mode="normal" in="SourceGraphic" in2="BackgroundImageFix" result="shape"/>
<feColorMatrix in="SourceAlpha" type="matrix" values="0 0 0 0 0 0 0 0 0 0 0 0 0 0 0 0 0 0 127 0" result="hardAlpha"/>
<feOffset dx="-3" dy="-9"/>
<feGaussianBlur stdDeviation="8"/>
<feComposite in2="hardAlpha" operator="arithmetic" k2="-1" k3="1"/>
<feColorMatrix type="matrix" values="0 0 0 0 0 0 0 0 0 0 0 0 0 0 0 0 0 0 0.25 0"/>
<feBlend mode="normal" in2="shape" result="effect1_innerShadow_7_11494"/>
</filter>
<filter id="filter2_i_7_11494" x="343.376" y="0.809326" width="232.5" height="328" filterUnits="userSpaceOnUse" color-interpolation-filters="sRGB">
<feFlood flood-opacity="0" result="BackgroundImageFix"/>
<feBlend mode="normal" in="SourceGraphic" in2="BackgroundImageFix" result="shape"/>
<feColorMatrix in="SourceAlpha" type="matrix" values="0 0 0 0 0 0 0 0 0 0 0 0 0 0 0 0 0 0 127 0" result="hardAlpha"/>
<feOffset dx="1" dy="8"/>
<feGaussianBlur stdDeviation="8"/>
<feComposite in2="hardAlpha" operator="arithmetic" k2="-1" k3="1"/>
<feColorMatrix type="matrix" values="0 0 0 0 0 0 0 0 0 0 0 0 0 0 0 0 0 0 0.25 0"/>
<feBlend mode="normal" in2="shape" result="effect1_innerShadow_7_11494"/>
</filter>
<filter id="filter3_i_7_11494" x="338.376" y="320.309" width="238.5" height="362.5" filterUnits="userSpaceOnUse" color-interpolation-filters="sRGB">
<feFlood flood-opacity="0" result="BackgroundImageFix"/>
<feBlend mode="normal" in="SourceGraphic" in2="BackgroundImageFix" result="shape"/>
<feColorMatrix in="SourceAlpha" type="matrix" values="0 0 0 0 0 0 0 0 0 0 0 0 0 0 0 0 0 0 127 0" result="hardAlpha"/>
<feOffset dx="1" dy="8"/>
<feGaussianBlur stdDeviation="8"/>
<feComposite in2="hardAlpha" operator="arithmetic" k2="-1" k3="1"/>
<feColorMatrix type="matrix" values="0 0 0 0 0 0 0 0 0 0 0 0 0 0 0 0 0 0 0.25 0"/>
<feBlend mode="normal" in2="shape" result="effect1_innerShadow_7_11494"/>
</filter>
<filter id="filter4_i_7_11494" x="92.876" y="317.809" width="250.5" height="371.5" filterUnits="userSpaceOnUse" color-interpolation-filters="sRGB">
<feFlood flood-opacity="0" result="BackgroundImageFix"/>
<feBlend mode="normal" in="SourceGraphic" in2="BackgroundImageFix" result="shape"/>
<feColorMatrix in="SourceAlpha" type="matrix" values="0 0 0 0 0 0 0 0 0 0 0 0 0 0 0 0 0 0 127 0" result="hardAlpha"/>
<feOffset dx="-6" dy="14"/>
<feGaussianBlur stdDeviation="8"/>
<feComposite in2="hardAlpha" operator="arithmetic" k2="-1" k3="1"/>
<feColorMatrix type="matrix" values="0 0 0 0 0 0 0 0 0 0 0 0 0 0 0 0 0 0 0.25 0"/>
<feBlend mode="normal" in2="shape" result="effect1_innerShadow_7_11494"/>
</filter>
<filter id="filter5_i_7_11494" x="0.875977" y="320.809" width="344" height="262" filterUnits="userSpaceOnUse" color-interpolation-filters="sRGB">
<feFlood flood-opacity="0" result="BackgroundImageFix"/>
<feBlend mode="normal" in="SourceGraphic" in2="BackgroundImageFix" result="shape"/>
<feColorMatrix in="SourceAlpha" type="matrix" values="0 0 0 0 0 0 0 0 0 0 0 0 0 0 0 0 0 0 127 0" result="hardAlpha"/>
<feOffset dx="1" dy="8"/>
<feGaussianBlur stdDeviation="8"/>
<feComposite in2="hardAlpha" operator="arithmetic" k2="-1" k3="1"/>
<feColorMatrix type="matrix" values="0 0 0 0 0 0 0 0 0 0 0 0 0 0 0 0 0 0 0.25 0"/>
<feBlend mode="normal" in2="shape" result="effect1_innerShadow_7_11494"/>
</filter>
<filter id="filter6_i_7_11494" x="-9.62402" y="97.8093" width="353.5" height="239" filterUnits="userSpaceOnUse" color-interpolation-filters="sRGB">
<feFlood flood-opacity="0" result="BackgroundImageFix"/>
<feBlend mode="normal" in="SourceGraphic" in2="BackgroundImageFix" result="shape"/>
<feColorMatrix in="SourceAlpha" type="matrix" values="0 0 0 0 0 0 0 0 0 0 0 0 0 0 0 0 0 0 127 0" result="hardAlpha"/>
<feOffset dx="-11" dy="-4"/>
<feGaussianBlur stdDeviation="8"/>
<feComposite in2="hardAlpha" operator="arithmetic" k2="-1" k3="1"/>
<feColorMatrix type="matrix" values="0 0 0 0 0 0 0 0 0 0 0 0 0 0 0 0 0 0 0.25 0"/>
<feBlend mode="normal" in2="shape" result="effect1_innerShadow_7_11494"/>
</filter>
<filter id="filter7_i_7_11494" x="342.376" y="320.809" width="342.971" height="269" filterUnits="userSpaceOnUse" color-interpolation-filters="sRGB">
<feFlood flood-opacity="0" result="BackgroundImageFix"/>
<feBlend mode="normal" in="SourceGraphic" in2="BackgroundImageFix" result="shape"/>
<feColorMatrix in="SourceAlpha" type="matrix" values="0 0 0 0 0 0 0 0 0 0 0 0 0 0 0 0 0 0 127 0" result="hardAlpha"/>
<feOffset dx="17" dy="10"/>
<feGaussianBlur stdDeviation="5"/>
<feComposite in2="hardAlpha" operator="arithmetic" k2="-1" k3="1"/>
<feColorMatrix type="matrix" values="0 0 0 0 0 0 0 0 0 0 0 0 0 0 0 0 0 0 0.25 0"/>
<feBlend mode="normal" in2="shape" result="effect1_innerShadow_7_11494"/>
</filter>
</defs>
</svg>
